<svg width="20" height="20" viewBox="0 0 20 20" fill="none" xmlns="http://www.w3.org/2000/svg">
<path d="M9.95925 16.5722C9.86064 16.5719 9.76319 16.5509 9.67323 16.5105C9.58326 16.4702 9.5028 16.4113 9.43706 16.3378L2.85956 9.04359C2.76918 8.94254 2.70994 8.81752 2.68897 8.68358C2.668 8.54964 2.68621 8.41249 2.74139 8.28866C2.79657 8.16482 2.88637 8.05958 2.99999 7.98561C3.1136 7.91163 3.24618 7.87208 3.38175 7.87172H6.01565V1.45312C6.01565 1.26664 6.08973 1.0878 6.2216 0.955941C6.35346 0.824079 6.5323 0.75 6.71878 0.75H13.2016C13.3881 0.75 13.5669 0.824079 13.6988 0.955941C13.8306 1.0878 13.9047 1.26664 13.9047 1.45312V7.86984H16.5372C16.6728 7.87021 16.8054 7.90976 16.919 7.98373C17.0326 8.0577 17.1224 8.16295 17.1776 8.28678C17.2328 8.41062 17.251 8.54776 17.23 8.6817C17.209 8.81565 17.1498 8.94067 17.0594 9.04172L10.4814 16.3397C10.4155 16.4128 10.335 16.4713 10.245 16.5114C10.1551 16.5514 10.0577 16.5722 9.95925 16.5722ZM4.96237 9.27609L9.95925 14.8191L14.9566 9.27609H13.2016C13.0151 9.27609 12.8363 9.20201 12.7044 9.07015C12.5725 8.93829 12.4985 8.75945 12.4985 8.57297V2.15625H7.4219V8.57297C7.4219 8.75945 7.34783 8.93829 7.21596 9.07015C7.0841 9.20201 6.90526 9.27609 6.71878 9.27609H4.96237Z" fill="black"/>
<path d="M16.3206 19.5938H3.59829C2.78683 19.5929 2.00884 19.2702 1.43501 18.6964C0.861171 18.1227 0.538346 17.3448 0.537354 16.5333V14.7441C0.537354 14.5576 0.611433 14.3788 0.743294 14.2469C0.875156 14.115 1.054 14.041 1.24048 14.041C1.42696 14.041 1.6058 14.115 1.73766 14.2469C1.86952 14.3788 1.9436 14.5576 1.9436 14.7441V16.5333C1.94422 16.9719 2.11877 17.3924 2.42896 17.7025C2.73916 18.0126 3.15967 18.187 3.59829 18.1875H16.3206C16.7592 18.187 17.1797 18.0126 17.4898 17.7025C17.7999 17.3923 17.9744 16.9719 17.9749 16.5333V14.7441C17.9749 14.5576 18.0489 14.3788 18.1808 14.2469C18.3127 14.115 18.4915 14.041 18.678 14.041C18.8645 14.041 19.0433 14.115 19.1752 14.2469C19.307 14.3788 19.3811 14.5576 19.3811 14.7441V16.5333C19.3801 17.3447 19.0574 18.1225 18.4836 18.6963C17.9099 19.27 17.132 19.5928 16.3206 19.5938Z" fill="black"/>
</svg>
